<svg xmlns="http://www.w3.org/2000/svg" width="42.536" height="51.694" viewBox="0 0 42.536 51.694">
  <g id="Group_12" data-name="Group 12" transform="translate(0.5 0.5)">
    <path id="Path_6" data-name="Path 6" d="M64.382,323.4A19.52,19.52,0,0,1,44.9,342.877H42.324A19.506,19.506,0,0,1,22.846,323.4v-8.667A9.668,9.668,0,0,1,40,308.613h0a7.891,7.891,0,0,0,.577.608,3.171,3.171,0,0,0,.46.4,4.477,4.477,0,0,0,1.224.6,4.258,4.258,0,0,0,.772.171,10.024,10.024,0,0,0-9.992-9.416.561.561,0,0,1,0-1.122,11.084,11.084,0,0,1,7.872,3.266,11.231,11.231,0,0,1,2.533,3.9l1.247-1.691A11.759,11.759,0,0,1,54.6,292.191l.078-.008h.031a.567.567,0,0,1,.53.506,11.751,11.751,0,0,1-9.642,13.3l-1.738,2.354a11.187,11.187,0,0,1,.3,2.058,5.065,5.065,0,0,0,.92-.21,4.558,4.558,0,0,0,1.115-.569,3.173,3.173,0,0,0,.46-.4,7.9,7.9,0,0,0,.577-.608l.008-.008a9.667,9.667,0,0,1,17.147,6.126V323.4Zm-14.451,3.2a5.255,5.255,0,0,0-3.882-5.253,5.238,5.238,0,0,0,3.882,5.253Zm-.117-3.967a6.392,6.392,0,0,0-4.178-2.517l-.086-.008H45.52a.56.56,0,0,0-.522.507,6.359,6.359,0,0,0,5.355,7.218.563.563,0,0,0,.639-.468v-.016a6.348,6.348,0,0,0-1.177-4.716Zm-13.578,4.716v.016a.563.563,0,0,0,.639.468,6.359,6.359,0,0,0,5.355-7.218.566.566,0,0,0-.522-.507h-.039l-.078.008a6.373,6.373,0,0,0-5.355,7.233Zm2.081-4.045a5.257,5.257,0,0,0-1.029,3.3,5.238,5.238,0,0,0,3.882-5.253,5.182,5.182,0,0,0-2.853,1.956Zm-2.081,4.045-.008-.07.008.07Zm18-33.056L46.619,304.6a10.6,10.6,0,0,0,7.623-10.312Zm-8.519,9.649,7.623-10.319a10.615,10.615,0,0,0-7.623,10.319Zm12.144,32.432a18.307,18.307,0,0,0,5.394-12.97v-8.667a8.539,8.539,0,0,0-15.16-5.409l-.023.023c-.164.195-.405.452-.647.686a5.46,5.46,0,0,1-.6.507,5.55,5.55,0,0,1-2.923,1.005h0l-.281.008H43.61a5.6,5.6,0,0,1-3.219-1.013,4.781,4.781,0,0,1-.592-.507,8.3,8.3,0,0,1-.647-.686h0l-.016-.016a8.606,8.606,0,0,0-2.954-2.323,8.552,8.552,0,0,0-12.214,7.724V323.4a18.389,18.389,0,0,0,18.356,18.356H44.9A18.272,18.272,0,0,0,57.866,336.369Z" transform="translate(-22.846 -292.183)" fill="#fff" stroke="#fff" stroke-width="1" fill-rule="evenodd"/>
  </g>
</svg>
