<?xml version="1.0" encoding="utf-8"?>
<!-- Generator: Adobe Illustrator 23.0.2, SVG Export Plug-In . SVG Version: 6.00 Build 0)  -->
<svg version="1.1" id="Capa_1" xmlns="http://www.w3.org/2000/svg" xmlns:xlink="http://www.w3.org/1999/xlink" x="0px" y="0px"
	 viewBox="0 0 35 35" style="enable-background:new 0 0 35 35;" xml:space="preserve">
<style type="text/css">
	.st0{fill:#452394;}
	.st1{fill:#2A135E;}
	.st2{fill:#A267C9;}
</style>
<circle class="st0" cx="17.5" cy="17.5" r="16.6"/>
<path class="st1" d="M25,13.6c-1.4,0-2.5,0.5-3.4,1.4c-0.3,0.3-0.5,0.6-0.7,0.9l-6-5.9h-3L6.3,24.1l10,10c0.4,0,0.8,0,1.2,0
	c8.2,0,15-5.9,16.4-13.7l-5.6-5.6l0,0C27.4,14,26.3,13.6,25,13.6z"/>
<g>
	<path class="st2" d="M20.5,24.1h-3.1l-1.2-3.2h-5.7l-1.2,3.2h-3L11.8,10h3L20.5,24.1z M15.3,18.5l-2-5.3l-1.9,5.3H15.3z"/>
	<path class="st2" d="M27,20.8l2.7,0.5c-0.3,1-0.9,1.7-1.6,2.3c-0.8,0.5-1.7,0.8-2.8,0.8c-1.8,0-3.1-0.6-4-1.7c-0.7-0.9-1-2.1-1-3.5
		c0-1.7,0.4-3,1.3-4s2-1.4,3.4-1.4c1.5,0,2.7,0.5,3.6,1.5s1.3,2.6,1.3,4.6H23c0,0.8,0.2,1.4,0.7,1.9c0.4,0.4,0.9,0.7,1.6,0.7
		c0.4,0,0.8-0.1,1.1-0.3C26.6,21.7,26.8,21.4,27,20.8z M27.1,18.1c0-0.8-0.2-1.4-0.6-1.8s-0.9-0.6-1.4-0.6c-0.6,0-1.1,0.2-1.5,0.6
		c-0.4,0.4-0.6,1-0.6,1.8H27.1L27.1,18.1z"/>
</g>
</svg>
