<svg xmlns="http://www.w3.org/2000/svg" width="56" height="56" viewBox="0 0 56 56">
  <g id="Group_18" data-name="Group 18" transform="translate(-170 -1127)">
    <g id="Ellipse_20" data-name="Ellipse 20" transform="translate(170 1127)" fill="#f8f8f8" stroke="#5863b6" stroke-width="1">
      <circle cx="28" cy="28" r="28" stroke="none"/>
      <circle cx="28" cy="28" r="27.5" fill="none"/>
    </g>
    <path id="Path_10" data-name="Path 10" d="M103.23,173.974h19.129v-2.667a1.626,1.626,0,0,0-1.619-1.619h-15.89a1.609,1.609,0,0,0-1.143.471l-.006.006a1.609,1.609,0,0,0-.471,1.143v2.667Zm-.4-35.188h19.936a.405.405,0,0,1,.4.4v2.09h4.141a2.43,2.43,0,0,1,2.426,2.426v8.1a2.437,2.437,0,0,1-.258,1.1,2.369,2.369,0,0,1-.734.852l-5.721,4.191-.045.034-5.295,3.877a1.641,1.641,0,0,0-.493.572,1.59,1.59,0,0,0-.168.734v5.715h3.72a2.429,2.429,0,0,1,2.426,2.426v3.07a.41.41,0,0,1-.4.409H102.826a.407.407,0,0,1-.4-.409v-3.07a2.41,2.41,0,0,1,.706-1.709l.006-.006h0a2.4,2.4,0,0,1,1.715-.712h4.045V163.5a1.62,1.62,0,0,0-.162-.728,1.683,1.683,0,0,0-.487-.571l-5.642-4.225-.011-.011-5.743-4.208a2.365,2.365,0,0,1-.992-1.95v-8.1A2.419,2.419,0,0,1,96.562,142l.006-.006h0a2.425,2.425,0,0,1,1.709-.712h4.146v-2.09a.4.4,0,0,1,.4-.4Zm20.339,3.3v14.759l5.1-3.737a1.633,1.633,0,0,0,.493-.566,1.664,1.664,0,0,0,.168-.734v-8.1a1.626,1.626,0,0,0-1.619-1.619Zm-20.743,14.759V142.087H98.277a1.61,1.61,0,0,0-1.137.476h-.006a1.608,1.608,0,0,0-.471,1.143v8.1a1.545,1.545,0,0,0,.661,1.3l5.1,3.737Zm19.936-17.252H103.23V157.44l5.5,4.118a2.384,2.384,0,0,1,.969,1.944v5.379h6.511v-5.715a2.416,2.416,0,0,1,.252-1.1,2.509,2.509,0,0,1,.74-.857l5.155-3.771V139.594Zm-14.972,8.365a.38.38,0,0,0-.3.135.4.4,0,0,0,.034.572l2.734,2.409-.8,3.53a.4.4,0,0,0,.594.459l3.132-1.86,3.132,1.86h0a.417.417,0,0,0,.3.045.4.4,0,0,0,.3-.482l-.79-3.552,2.729-2.4h0a.421.421,0,0,0,.14-.263.412.412,0,0,0-.364-.443l-3.625-.342-1.446-3.345h0a.4.4,0,0,0-.207-.207.405.405,0,0,0-.532.207l-1.446,3.345-3.592.336Zm3.9.443-2.93.275,2.213,1.95h-.006a.394.394,0,0,1,.129.392l-.644,2.874,2.533-1.5a.407.407,0,0,1,.415,0l2.538,1.5-.639-2.841a.418.418,0,0,1,.118-.426l2.213-1.944-2.9-.275a.416.416,0,0,1-.364-.246l-1.165-2.706-1.165,2.69A.414.414,0,0,1,111.287,148.4Z" transform="translate(85.144 1001.213)" fill="#5863b6" stroke="#5863b6" stroke-width="0.5" fill-rule="evenodd"/>
  </g>
</svg>
