<svg xmlns="http://www.w3.org/2000/svg" width="56" height="56" viewBox="0 0 56 56">
  <g id="Group_17" data-name="Group 17" transform="translate(-170 -871)">
    <g id="Ellipse_21" data-name="Ellipse 21" transform="translate(170 871)" fill="#fff" stroke="#5863b6" stroke-width="1">
      <circle cx="28" cy="28" r="28" stroke="none"/>
      <circle cx="28" cy="28" r="27.5" fill="none"/>
    </g>
    <g id="Group_15" data-name="Group 15" transform="translate(108.679 567.535)">
      <path id="Path_11" data-name="Path 11" d="M91.886,342.955l-.04.069-.82,1.42,2.379-.5a.417.417,0,0,1,.491.277l.762,2.321,2.748-4.763-.115-.017h0l-.035-.006-.115-.023h-.012l-.029-.006-.11-.029h-.012l-.029-.006-.023-.006-.017-.006-.075-.023h-.012l-.023-.011-.023-.006-.012-.006-.04-.006h0l-.035-.011-.11-.04h-.006l-.029-.011-.04-.012-.029-.011-.006-.006-.035-.012H96.43l-.029-.011-.035-.017-.035-.012h0l-.035-.017-.012-.006-.023-.012-.023-.006-.012-.006-.035-.017h0l-.035-.018-.012-.006-.023-.011-.023-.012-.012-.006-.035-.017h0l-.035-.017-.029-.017-.029-.012-.006-.006-.035-.017h-.006l-.029-.017-.012-.012-.017-.011-.029-.012-.006-.006-.035-.017-.006-.006-.023-.011-.017-.012-.017-.011-.029-.017v-.006l-.035-.017-.006-.006-.04-.029H95.61l-.012-.006-.029-.023h0l-.029-.023-.012-.006-.023-.017L95.489,341l-.012-.011-.029-.017-.006-.006-.029-.017-.012-.011-.012-.012-.023-.017-.012-.006-.029-.023-.006-.006-.035-.029-.017-.012-.023-.023-.006-.006-.029-.023-.006-.006-.017-.011-.017-.023h-.006l-.069-.064v-.006l-.023-.011-.017-.023H95.05l-.017-.023-.017-.012-.006-.012-.023-.017v-.006h-.006l-.017-.017-.017-.023h-.006l-.064-.075-.017-.011-.017-.023h-.006l-.029-.04-.012-.011-.017-.017-.006-.006-.069-.081-.006-.012-.023-.023v-.006c-.052-.058-.1-.127-.15-.191l-.006-.011-.012-.012-.017-.029h0l-.087-.127-.017-.029-.006-.018-.006-.006-.017-.029-.006-.006-.029-.046h0l-.017-.029-.006-.017-.006-.012-.017-.023-.006-.006-.006-.023-.017-.023v-.006l-.023-.04-.006-.012L94.2,339.5V339.5l-.012-.023-.012-.023-.006-.006-.012-.023-.006-.017-.006-.012-.017-.029v-.006l-.012-.023-.012-.023v-.006l-.012-.029-.006-.012-.006-.017-.012-.029h-.006l-.012-.029-2.171,3.764Zm6.1-9.642A4.246,4.246,0,0,0,95,334.537l-.023.023a4.236,4.236,0,0,0-1.241,3.008,4.438,4.438,0,0,0,.023.479l-2.494,4.319H73.815a1.635,1.635,0,0,1-1.172-.491,1.659,1.659,0,0,1-.491-1.172V319.965a1.662,1.662,0,0,1,.491-1.178v-.006a1.654,1.654,0,0,1,1.172-.485H104.64a1.676,1.676,0,0,1,1.663,1.669V340.7a1.635,1.635,0,0,1-.491,1.172v.006a1.665,1.665,0,0,1-1.109.485l-2.494-4.319a4.436,4.436,0,0,0,.029-.479,4.258,4.258,0,0,0-4.249-4.255Zm3.926,5.878-.023.058-.012.017-.006.012-.012.029v.006l-.012.023-.029.058-.006.017-.006.012-.012.023-.006.011-.012.017-.012.029h0l-.017.029-.006.012-.006.017-.017.029h0l-.012.023-.012.023-.006.006-.017.029-.006.011-.006.012-.017.029h0l-.017.029-.012.017-.006.006-.012.029-.006.011-.012.012-.017.029h0l-.017.023-.012.017-.006.011-.017.023-.006.012-.012.017-.017.023h0l-.017.029-.012.017-.006.006-.017.023-.006.012-.012.012-.017.029h0l-.023.023-.012.018-.006.011-.017.023-.006.006-.017.017-.017.023h0l-.017.023-.012.017-.012.006-.017.023-.006.006-.017.018-.017.023v.006l-.023.023-.012.011-.006.012-.023.023h-.006l-.012.023-.017.017-.006.006-.023.017-.012.012-.006.011-.023.023-.006.006-.017.017-.017.017h0a4.268,4.268,0,0,1-2.3,1.189h-.006l-.115.017,2.748,4.763.762-2.321a.42.42,0,0,1,.491-.277l2.379.5-.826-1.432-.029-.052-2.177-3.77ZM100.4,335.15a3.388,3.388,0,0,1,1,2.419,2.949,2.949,0,0,1-.04.5v.017l-.006.018v.023l-.006.017-.006.023v.017l-.029.15h0l-.012.041h0l-.012.035v.012l-.006.029-.006.011-.006.023-.012.04-.006.017-.006.017a3.378,3.378,0,0,1-.854,1.42h0a3.4,3.4,0,0,1-1.853.958h-.012l-.029.006H98.5l-.035.006h-.006l-.035.006h0l-.04.006h-.006l-.04.006h-.069l-.017.006h-.023l-.017.006h-.185l-.035.006-.04-.006H97.77l-.017-.006h-.029l-.012-.006h-.075l-.006-.006h-.04l-.035-.006H97.55l-.035-.006H97.51l-.035-.006h-.006l-.029-.006h-.017l-.023-.006-.017-.006H97.36l-.023-.006-.012-.006-.029-.006h-.012l-.029-.006H97.25l-.035-.011H97.21l-.035-.006h0l-.035-.012h-.012l-.029-.006-.012-.006-.023-.006-.012-.006-.081-.023-.017-.006-.023-.006-.012-.006-.029-.012h-.012l-.029-.011h-.006l-.035-.012-.035-.017h-.006l-.029-.012H96.73l-.023-.012-.012-.006-.04-.017-.017-.006-.023-.012-.012-.006-.023-.012-.012-.006-.029-.011-.035-.017H96.5l-.035-.018h0l-.035-.017h-.006l-.029-.017-.029-.017-.012-.006-.023-.012-.012-.006-.017-.011-.017-.012-.017-.011-.017-.012-.017-.006-.023-.012-.006-.006-.029-.017h0l-.035-.023h0l-.029-.018-.006-.006-.029-.017h0l-.029-.017-.006-.011-.023-.012-.012-.006-.017-.017-.017-.012-.017-.011-.017-.012-.012-.011-.017-.012-.012-.006-.023-.023H95.87l-.023-.023h-.006l-.029-.029h0l-.029-.023h0l-.029-.023-.006-.006-.023-.018-.006-.006-.023-.017-.006-.012-.017-.017-.058-.052-.017-.017-.006-.006-.023-.023h0l-.006-.006-.023-.023h-.006v-.006a3.325,3.325,0,0,1-.606-.854l-.006-.006-.058-.133-.012-.017-.006-.017-.017-.035-.012-.029v-.006l-.012-.029-.006-.006-.012-.035h0l-.012-.035v-.006l-.012-.035h-.006l-.012-.035v-.006l-.012-.029-.006-.011-.006-.029-.006-.012-.006-.023-.006-.017-.006-.017L94.7,338.5l-.006-.017-.006-.023v-.011l-.012-.029v-.012l-.006-.035-.012-.041h0l-.012-.04h0l-.006-.035-.006-.006v-.035l-.006-.006-.006-.029v-.017l-.006-.04-.006-.023v-.018a3.147,3.147,0,0,1-.04-.52,3.407,3.407,0,0,1,1-2.419l.017-.023a3.415,3.415,0,0,1,4.815.023ZM90.789,343.2H73.815a2.5,2.5,0,0,1-2.494-2.494V319.965a2.512,2.512,0,0,1,.733-1.767h0l.006-.006a2.479,2.479,0,0,1,1.755-.727H104.64a2.464,2.464,0,0,1,1.761.733,2.491,2.491,0,0,1,.733,1.767V340.7a2.488,2.488,0,0,1-.733,1.761h0a2.527,2.527,0,0,1-1.247.681l.976,1.686h0a.415.415,0,0,1-.445.612l-2.933-.612-.935,2.846h-.006a.4.4,0,0,1-.185.231.412.412,0,0,1-.566-.156l-3.072-5.318-3.077,5.318a.4.4,0,0,1-.56.156.392.392,0,0,1-.191-.231h0l-.935-2.846-2.933.612a.412.412,0,0,1-.491-.323.4.4,0,0,1,.058-.312l.93-1.611Zm-.93,1.611.26-.179a.421.421,0,0,0-.26.179Zm-11.668-8.695H89.231a.413.413,0,1,0,0-.826H78.192a.413.413,0,1,0,0,.826Zm11.039-4.18H78.192a.419.419,0,0,0-.416.421.414.414,0,0,0,.416.416H89.231a.413.413,0,0,0,.41-.416.418.418,0,0,0-.41-.421Zm-11.039-7.477h22.072a.416.416,0,1,0,0-.831H78.192a.416.416,0,1,0,0,.831Z" transform="translate(0 0)" fill="#5863b6" stroke="#5863b6" stroke-width="0.5" fill-rule="evenodd"/>
    </g>
  </g>
</svg>
