<svg xmlns="http://www.w3.org/2000/svg" width="32.99" height="31.055" viewBox="0 0 32.99 31.055">
  <path id="Path_5" data-name="Path 5" d="M376.9,90.417a2.189,2.189,0,0,1,1.548,3.735l-.025.021a2.187,2.187,0,1,1-1.522-3.756Zm6.609-13.8v-.062a.375.375,0,0,0-.379-.374H370.689a2.275,2.275,0,0,0-2.273,2.269v15.9a2.28,2.28,0,0,0,2.273,2.269h12.442a.377.377,0,0,0,.379-.374V95.89h8.531a8.376,8.376,0,0,0,8.365-8.363V80.063a2.275,2.275,0,0,0-.663-1.6l0,0h0a2.276,2.276,0,0,0-1.608-.668H391.9l1.183-8.564a2.212,2.212,0,0,0-.538-1.807,2.272,2.272,0,0,0-.769-.582v0a2.27,2.27,0,0,0-.943-.2h-.758a2.246,2.246,0,0,0-2.017,1.227l-4.551,8.753Zm5.223-8.4a1.477,1.477,0,0,1,1.344-.818h.758a1.482,1.482,0,0,1,.631.132h0a1.5,1.5,0,0,1,.513.388,1.513,1.513,0,0,1,.314.561,1.5,1.5,0,0,1,.044.645l-1.243,9a.376.376,0,0,0,.321.425l.053,0h6.662a1.512,1.512,0,0,1,1.072.444l0,0a1.516,1.516,0,0,1,.444,1.072v7.464a7.619,7.619,0,0,1-7.607,7.6H383.51V78.259l5.223-10.047Zm-5.981,8.716H370.689a1.522,1.522,0,0,0-1.515,1.52v15.9a1.518,1.518,0,0,0,.446,1.074,1.5,1.5,0,0,0,1.07.444h12.063V76.929Zm-4.84,14.665a1.429,1.429,0,0,0-2.439,1.012,1.429,1.429,0,0,0,2.423,1.028l.016-.018a1.431,1.431,0,0,0,0-2.021Z" transform="translate(-367.916 -66.058)" fill="#5863b6" stroke="#5863b6" stroke-width="1" fill-rule="evenodd"/>
</svg>
