<?xml version="1.0" encoding="utf-8"?>
<!-- Generator: Adobe Illustrator 24.0.3, SVG Export Plug-In . SVG Version: 6.00 Build 0)  -->
<svg version="1.1" id="Capa_1" xmlns="http://www.w3.org/2000/svg" xmlns:xlink="http://www.w3.org/1999/xlink" x="0px" y="0px"
	 viewBox="0 0 35 35" style="enable-background:new 0 0 35 35;" xml:space="preserve">
<style type="text/css">
	.st0{fill:#003E97;}
	.st1{fill:#1A246C;}
	.st2{fill:#00B4ED;}
</style>
<circle class="st0" cx="17.5" cy="17.5" r="16.6"/>
<path class="st1" d="M23.1,13.9c-1.3,0-2.3,0.2-3.1,0.7l-3.2-3.2l0,0c-0.5-0.5-1.1-0.9-1.8-1.1c-1-0.3-3.3-0.2-8.1-0.2v14.3l9.6,9.6
	c0.3,0,0.6,0,1,0c7.7,0,14.2-5.2,16.1-12.3L26.8,15l0,0C25.9,14.2,24.6,13.9,23.1,13.9z"/>
<g>
	<path class="st2" d="M7,24.5V10.2c4.8,0,7.1,0,8.1,0.2c0.8,0.2,1.5,0.7,2.1,1.4c1.1,1.4,1,3.7,0.4,5c-0.6,1.1-1.6,1.9-2.7,2.1
		c-1.3,0.3-3.2,0.2-4.9,0.2v5.4L7,24.5L7,24.5z M9.9,12.6v4.1c2.9,0,4.1,0.1,4.8-0.9c0.5-0.7,0.5-1.8-0.1-2.4
		C13.8,12.5,13,12.6,9.9,12.6z"/>
	<path class="st2" d="M18.3,21.6l2.8-0.4c0.3,1.2,1,1.6,2.2,1.6c0.9,0,2-0.2,2-1.1c0-0.6-0.5-0.7-1.1-0.9c-2.2-0.5-3.6-0.9-4.2-1.3
		c-0.8-0.6-1.2-1.3-1.2-2.3c0-0.9,0.4-1.7,1.1-2.3c0.7-0.6,1.8-0.9,3.3-0.9c2.3,0,4,0.5,4.6,2.8l-2.6,0.5c-0.1-0.4-0.3-0.7-0.6-0.9
		c-0.7-0.5-2.3-0.4-2.9,0c-0.4,0.3-0.4,0.8,0,1.1c0.8,0.6,4.2,0.8,5.6,2c0.6,0.5,0.9,1.2,0.9,2c0,1-0.4,1.8-1.2,2.5
		c-0.8,0.7-2,1-3.5,1c-1.4,0-2.5-0.3-3.4-0.9C19.1,23.3,18.6,22.5,18.3,21.6z"/>
</g>
</svg>
