<?xml version="1.0" encoding="utf-8"?>
<!-- Generator: Adobe Illustrator 24.0.3, SVG Export Plug-In . SVG Version: 6.00 Build 0)  -->
<svg version="1.1" id="Capa_1" xmlns="http://www.w3.org/2000/svg" xmlns:xlink="http://www.w3.org/1999/xlink" x="0px" y="0px"
	 viewBox="0 0 35 35" style="enable-background:new 0 0 35 35;" xml:space="preserve">
<style type="text/css">
	.st0{fill:#3C2180;}
	.st1{fill:#351660;}
	.st2{fill:#8475B4;}
</style>
<circle class="st0" cx="17.5" cy="17.5" r="16.6"/>
<path class="st1" d="M24.8,14c-0.2,0.1-0.4,0.3-0.6,0.6l-0.7-0.7H21l-3-3l0,0c-0.6-0.6-1.2-1-2-1.2c-0.6-0.2-1.9-0.2-3.9-0.2H6.8
	v16.1l8.4,8.4c0.7,0.1,1.5,0.1,2.2,0.1C25.8,34.1,32.7,28,34,20l-5.8-5.8c-0.7-0.4-1.3-0.6-2-0.6C25.6,13.6,25.2,13.7,24.8,14z"/>
<g>
	<path class="st2" d="M6.8,25.6V9.4H12c2,0,3.3,0.1,3.9,0.2c0.9,0.2,1.7,0.8,2.3,1.6c0.6,0.8,0.9,1.9,0.9,3.1c0,1-0.2,1.8-0.5,2.5
		c-0.4,0.7-0.8,1.2-1.4,1.6s-1.1,0.6-1.7,0.8c-0.8,0.2-1.9,0.2-3.4,0.2H10v6.1L6.8,25.6L6.8,25.6z M10.1,12.2v4.6h1.8
		c1.3,0,2.1-0.1,2.6-0.3c0.4-0.2,0.8-0.4,1-0.8c0.2-0.4,0.4-0.8,0.4-1.3c0-0.6-0.2-1.1-0.5-1.5s-0.8-0.6-1.3-0.7
		c-0.4-0.1-1.2-0.1-2.3-0.1L10.1,12.2L10.1,12.2L10.1,12.2z"/>
	<path class="st2" d="M23.7,25.6h-3.1V13.9h2.9v1.7c0.5-0.8,0.9-1.3,1.3-1.6c0.4-0.2,0.8-0.4,1.3-0.4c0.7,0,1.4,0.2,2,0.6l-1,2.7
		c-0.5-0.3-1-0.5-1.5-0.5c-0.4,0-0.8,0.1-1.1,0.4c-0.3,0.2-0.5,0.7-0.7,1.3c-0.2,0.6-0.3,1.9-0.3,3.9L23.7,25.6L23.7,25.6z"/>
</g>
</svg>
