<svg xmlns="http://www.w3.org/2000/svg" width="70.392" height="45.326" viewBox="0 0 70.392 45.326">
  <path id="Path_9" data-name="Path 9" d="M13.436,205.972H78.968a.93.93,0,0,0,.661-.277.918.918,0,0,0,.273-.657V203.7a.927.927,0,0,0-.273-.661l-.023-.023a.932.932,0,0,0-.638-.251H13.436a.933.933,0,0,0-.934.934v1.34a.943.943,0,0,0,.273.661v0a.937.937,0,0,0,.661.277Zm4.887-43.581H74.081a2.191,2.191,0,0,1,2.183,2.183v36.943h2.7a2.172,2.172,0,0,1,1.5.6l.042.038a2.16,2.16,0,0,1,.638,1.538v1.34a2.185,2.185,0,0,1-2.18,2.18H13.436a2.154,2.154,0,0,1-1.538-.642h0a2.176,2.176,0,0,1-.642-1.538V203.7a2.17,2.17,0,0,1,.642-1.538h0a2.177,2.177,0,0,1,1.538-.642h2.707V164.574a2.182,2.182,0,0,1,.638-1.542h0a2.179,2.179,0,0,1,1.542-.642Zm55.758,1.249H18.323a.933.933,0,0,0-.661.273h0a.936.936,0,0,0-.273.661v36.943H75.015V164.574a.933.933,0,0,0-.934-.934ZM35.71,204.886a.623.623,0,1,1,0-1.245H56.276a.623.623,0,1,1,0,1.245Zm-15.793-39.5a.623.623,0,0,0-.623.623v33.135a.624.624,0,0,0,.623.627H72.49a.624.624,0,0,0,.623-.627V166.01a.623.623,0,0,0-.623-.623Zm51.95,1.246H20.536v31.889H71.867Z" transform="translate(-11.006 -162.141)" fill="#fff" stroke="#fff" stroke-width="0.5" fill-rule="evenodd"/>
</svg>
