<svg xmlns="http://www.w3.org/2000/svg" width="57.455" height="56.031" viewBox="0 0 57.455 56.031">
  <g id="Group_14" data-name="Group 14" transform="translate(1.37 0.318)">
    <path id="Path_8" data-name="Path 8" d="M3.395,0H26.389a3.385,3.385,0,0,1,2.4,1l0,0a3.38,3.38,0,0,1,.994,2.394V44.937a3.388,3.388,0,0,1-.994,2.4h0a3.385,3.385,0,0,1-2.4,1H3.395A3.4,3.4,0,0,1,0,44.937V3.395A3.4,3.4,0,0,1,3.395,0ZM11.82,44.6h6.162a.568.568,0,0,0,0-1.135H11.82a.568.568,0,0,0,0,1.135ZM3.447,4.6a.566.566,0,0,0-.566.566V40.9a.566.566,0,0,0,.566.566H26.341a.568.568,0,0,0,.566-.566V5.168a.568.568,0,0,0-.566-.566ZM25.775,5.734H4.012v34.6H25.775V5.734Zm.614-4.6H3.395A2.273,2.273,0,0,0,1.132,3.395V44.937A2.268,2.268,0,0,0,3.395,47.2H26.389a2.255,2.255,0,0,0,1.6-.662h0a2.268,2.268,0,0,0,.662-1.6V3.395a2.253,2.253,0,0,0-.662-1.6v0A2.27,2.27,0,0,0,26.389,1.132Z" transform="translate(27.605 0) rotate(19)" fill="#fff" stroke="#fff" stroke-width="0.5" fill-rule="evenodd"/>
    <line id="Line_19" data-name="Line 19" y1="4.379" x2="11.386" transform="matrix(-0.695, -0.719, 0.719, -0.695, 7.909, 22.009)" fill="none" stroke="#fff" stroke-linecap="round" stroke-width="1.5"/>
    <line id="Line_20" data-name="Line 20" x2="11.386" y2="3.503" transform="matrix(-0.695, -0.719, 0.719, -0.695, 17.36, 12.883)" fill="none" stroke="#fff" stroke-linecap="round" stroke-width="1.5"/>
  </g>
</svg>
