<?xml version="1.0" encoding="utf-8"?>
<!-- Generator: Adobe Illustrator 24.0.3, SVG Export Plug-In . SVG Version: 6.00 Build 0)  -->
<svg version="1.1" id="Capa_1" xmlns="http://www.w3.org/2000/svg" xmlns:xlink="http://www.w3.org/1999/xlink" x="0px" y="0px"
	 viewBox="0 0 35 35" style="enable-background:new 0 0 35 35;" xml:space="preserve">
<style type="text/css">
	.st0{fill:#4F3030;}
	.st1{fill:#241616;}
	.st2{fill:#DF3A5C;}
</style>
<circle class="st0" cx="17.5" cy="17.5" r="16.6"/>
<path class="st1" d="M16,34.1c0.5,0,1,0.1,1.5,0.1c9.2,0,16.6-7.4,16.6-16.6c0-0.5,0-1.1-0.1-1.6l-7.6-7.6H23v6.6
	c-1.1-1.2-2.4-1.8-3.8-1.8c-0.7,0-1.3,0.1-1.9,0.3l-5.1-5.1H8.5v18.2L16,34.1z"/>
<g>
	<path class="st2" d="M8.5,26.5V8.3h3.7v18.2L8.5,26.5L8.5,26.5z"/>
	<path class="st2" d="M26.5,26.5h-3.2v-1.9c-1.1,1.5-2.7,2.2-4.1,2.2c-1.5,0-2.8-0.6-3.9-1.8c-1.1-1.2-1.6-2.9-1.6-5.1
		c0-2.2,0.5-3.9,1.6-5.1c1.1-1.2,2.4-1.7,4-1.7c1.5,0,2.8,0.6,3.8,1.8V8.3h3.5L26.5,26.5L26.5,26.5z M17.2,19.7
		c0,1.4,0.2,2.4,0.6,3.1c0.6,0.9,1.4,1.4,2.4,1.4c0.8,0,1.5-0.3,2.1-1c0.6-0.7,0.8-1.7,0.8-3.1c0-1.5-0.3-2.6-0.8-3.3
		c-0.5-0.7-1.2-1-2.1-1c-0.8,0-1.5,0.3-2.1,1C17.5,17.4,17.2,18.3,17.2,19.7z"/>
</g>
</svg>
