<?xml version="1.0" encoding="utf-8"?>
<!-- Generator: Adobe Illustrator 24.0.3, SVG Export Plug-In . SVG Version: 6.00 Build 0)  -->
<svg version="1.1" id="Capa_1" xmlns="http://www.w3.org/2000/svg" xmlns:xlink="http://www.w3.org/1999/xlink" x="0px" y="0px"
	 viewBox="0 0 35 35" style="enable-background:new 0 0 35 35;" xml:space="preserve">
<style type="text/css">
	.st0{fill:#592B49;}
	.st1{fill:#291221;}
	.st2{fill:#DA2286;}
</style>
<circle class="st0" cx="17.5" cy="17.5" r="16.6"/>
<path class="st1" d="M34.1,16.4l-5.7-5.7h-2.6v4.8c-0.8-0.9-1.7-1.4-2.8-1.4c-0.3,0-0.6,0-0.8,0.1l-3.5-3.5h-3.1l-2,3.3l-3.3-3.3H7
	l4.1,6.4l-4.6,7l10,10c0.3,0,0.6,0,0.9,0c9.2,0,16.6-7.5,16.6-16.6C34.1,17.1,34.1,16.8,34.1,16.4z"/>
<g>
	<path class="st2" d="M6.6,24.1l4.6-7L7,10.7h3.2l2.7,4.3l2.6-4.3h3.1l-4.2,6.5l4.6,6.9h-3.3l-3-4.6l-3,4.6L6.6,24.1L6.6,24.1z"/>
	<path class="st2" d="M28.4,24.1H26v-1.4c-0.4,0.6-0.9,1-1.4,1.2c-0.5,0.3-1.1,0.4-1.6,0.4c-1.1,0-2.1-0.4-2.9-1.3
		c-0.8-0.9-1.2-2.2-1.2-3.8c0-1.6,0.4-2.9,1.2-3.7c0.8-0.9,1.7-1.3,2.9-1.3c1.1,0,2,0.5,2.8,1.4v-4.8h2.6L28.4,24.1L28.4,24.1z
		 M21.5,19c0,1,0.1,1.8,0.4,2.2c0.4,0.7,1,1,1.7,1c0.6,0,1.1-0.3,1.5-0.8c0.4-0.5,0.6-1.3,0.6-2.3c0-1.1-0.2-1.9-0.6-2.4
		c-0.4-0.5-0.9-0.7-1.5-0.7c-0.6,0-1.1,0.2-1.5,0.7C21.7,17.3,21.5,18.1,21.5,19z"/>
</g>
</svg>
