<?xml version="1.0" encoding="utf-8"?>
<!-- Generator: Adobe Illustrator 24.0.3, SVG Export Plug-In . SVG Version: 6.00 Build 0)  -->
<svg version="1.1" id="Capa_1" xmlns="http://www.w3.org/2000/svg" xmlns:xlink="http://www.w3.org/1999/xlink" x="0px" y="0px"
	 viewBox="0 0 35 35" style="enable-background:new 0 0 35 35;" xml:space="preserve">
<style type="text/css">
	.st0{fill:#804518;}
	.st1{fill:#472E11;}
	.st2{fill:#F18900;}
</style>
<circle class="st0" cx="17.5" cy="17.5" r="16.6"/>
<path class="st1" d="M34.1,16.2l-6.7-6.7h-3.1v2.8l1.6,1.6h-1.6v2.6l-7-7h-3.4l-6.2,16l8.6,8.6c0.4,0,0.8,0,1.2,0
	c9.2,0,16.6-7.4,16.6-16.6C34.1,17.1,34.1,16.6,34.1,16.2z"/>
<g>
	<path class="st2" d="M23.7,25.5h-3.5l-1.4-3.6h-6.4l-1.3,3.6H7.6l6.2-16h3.4L23.7,25.5z M17.8,19.1l-2.2-5.9l-2.2,5.9H17.8z"/>
	<path class="st2" d="M24.3,12.3V9.5h3.1v2.8H24.3z M24.3,25.5V13.9h3.1v11.6H24.3L24.3,25.5z"/>
</g>
</svg>
