<svg xmlns="http://www.w3.org/2000/svg" width="55.998" height="44.072" viewBox="0 0 55.998 44.072">
  <path id="Path_4" data-name="Path 4" d="M414.791,252.85l16.24,8.12,8.464-4.235-16.247-8.12-8.457,4.235Zm25.32,23.21a2.307,2.307,0,0,1-.4-.147L423.878,268a2.063,2.063,0,0,1-.82-.743,2.034,2.034,0,0,1-.295-1.073v-8.225l8.043,4.025a.483.483,0,0,0,.449,0l8.856-4.425v18.5Zm1.01-18.5v18.5a2.31,2.31,0,0,0,.4-.147L457.354,268a2.129,2.129,0,0,0,.827-.743,2.092,2.092,0,0,0,.288-1.073v-8.225l-8.043,4.025a.483.483,0,0,1-.449,0l-8.856-4.425Zm18.358-.105v8.73a2.951,2.951,0,0,1-.449,1.6,2.915,2.915,0,0,1-1.227,1.115L441.97,276.81a2.944,2.944,0,0,1-2.707,0l-15.833-7.916a3,3,0,0,1-1.676-2.714v-8.73l-8.316-4.151a.534.534,0,0,1-.225-.224.51.51,0,0,1,.225-.68l8.688-4.34-8.688-4.341a.533.533,0,0,1-.225-.224.51.51,0,0,1,.225-.68l17.369-8.681a.505.505,0,0,1,.449,0l9.361,4.677,9.361-4.677a.505.505,0,0,1,.449,0l17.369,8.681a.514.514,0,0,1,.224.231.5.5,0,0,1-.224.673l-8.688,4.341,8.688,4.34a.533.533,0,0,1,.224.224.509.509,0,0,1-.224.68l-8.316,4.151Zm-18.358-17.263v15.735l15.735-7.867-15.735-7.867Zm-1.01,15.735-15.735-7.867,15.735-7.867v15.735Zm17.874-8.428,8.457-4.228-16.24-8.127-8.456,4.235,16.24,8.12ZM450.2,260.97l-8.456-4.235,16.24-8.12,8.457,4.235-16.24,8.12Zm-10.707-21.6-8.464-4.235-16.24,8.127,8.457,4.228Z" transform="translate(-412.617 -233.568)" fill="#fff" stroke="#fff" stroke-width="1" fill-rule="evenodd"/>
</svg>
