<svg xmlns="http://www.w3.org/2000/svg" width="56" height="56" viewBox="0 0 56 56">
  <g id="Group_16" data-name="Group 16" transform="translate(-170 -729)">
    <g id="Ellipse_22" data-name="Ellipse 22" transform="translate(170 729)" fill="#fff" stroke="#5863b6" stroke-width="1">
      <circle cx="28" cy="28" r="28" stroke="none"/>
      <circle cx="28" cy="28" r="27.5" fill="none"/>
    </g>
    <path id="Path_12" data-name="Path 12" d="M46.76,308.9H57.487v-2.129a.584.584,0,0,0-.173-.416v.005a.584.584,0,0,0-.416-.173H47.349a.575.575,0,0,0-.416.173l-.016.016a.564.564,0,0,0-.157.395V308.9Zm-9.949,0h9.181v-2.129a1.352,1.352,0,0,1,.373-.94l.027-.027a1.357,1.357,0,0,1,.956-.4H56.9a1.357,1.357,0,0,1,.956.4h0a1.365,1.365,0,0,1,.405.967V308.9h9.176a2.343,2.343,0,0,1,2.334,2.334v18.524a2.329,2.329,0,0,1-.686,1.654h0a2.328,2.328,0,0,1-1.648.686H36.812a2.343,2.343,0,0,1-2.34-2.34V311.239a2.338,2.338,0,0,1,.686-1.648h0l.005-.005a2.343,2.343,0,0,1,1.648-.681Zm30.624.778H36.812a1.552,1.552,0,0,0-1.1.454v.005a1.553,1.553,0,0,0-.459,1.1v13.018H48.917v-1.167a.39.39,0,0,1,.384-.389h5.642a.391.391,0,0,1,.389.389v1.167H68.992V311.239a1.548,1.548,0,0,0-.454-1.1,1.575,1.575,0,0,0-1.1-.459ZM35.25,325.04v4.723a1.569,1.569,0,0,0,1.562,1.562H67.436a1.575,1.575,0,0,0,1.1-.46h0a1.551,1.551,0,0,0,.454-1.1V325.04H55.331v2.167a.387.387,0,0,1-.389.389H49.3a.386.386,0,0,1-.384-.389V325.04Zm19.308-.335-.005-.059.005-.054v-1.113H49.689v1.113l.005.054-.005.059v2.113h4.869Z" transform="translate(146.528 437.908)" fill="#5863b6" stroke="#5863b6" stroke-width="0.5" fill-rule="evenodd"/>
  </g>
</svg>
