<svg xmlns="http://www.w3.org/2000/svg" width="40.271" height="48.006" viewBox="0 0 40.271 48.006">
  <g id="Group_13" data-name="Group 13" transform="translate(0.25 0.25)">
    <path id="Path_7" data-name="Path 7" d="M84.745,355.718a19.726,19.726,0,0,0,19.676,19.676h9.927l-6.025-9.158c-.076-.117-.151-.233-.22-.35h0l-.041-.076h0l-.082-.137h0l-.034-.069V365.6l-.076-.137-.144-.3h0l-.034-.069h0l-.027-.076-.034-.075-.027-.069h0l-.034-.076-.027-.075-.028-.075h0l-.027-.076h0l-.027-.069-.027-.075-.027-.076h0l-.021-.075-.027-.076-.021-.076-.028-.075h0l-.021-.076h0l-.021-.075-.021-.076-.014-.075-.021-.076-.021-.076-.014-.075-.014-.076-.021-.076-.014-.083-.014-.075-.014-.076-.007-.076h0l-.014-.075h0l-.014-.076h0l-.007-.082h0l-.007-.075-.014-.076-.007-.075h0l-.007-.076h0l-.007-.075h0v-.083h0l-.007-.076-.007-.075v-.233l-.007-.076v-.076l.007-.076V361.6l.007-.076h0v-.075l.007-.076.007-.082.007-.075.007-.076.007-.075.007-.076.014-.083.007-.075.014-.076.014-.075.007-.076.014-.076.014-.076.014-.075.021-.076.014-.075.021-.076.014-.076h0l.021-.075.021-.076.021-.076.014-.076h0l.027-.075.021-.076.027-.069.021-.076.021-.075.028-.076.027-.075.027-.069h0l.027-.075.027-.076h0l.034-.069.027-.076h0l.028-.069.034-.076.034-.069h0l.034-.069h0l.034-.076h0l.027-.069h.007l.034-.069h0l.034-.076h0l.034-.069h0l.041-.069.034-.069h0l.041-.075h0l.041-.069h0l.041-.069h0l.041-.069h0l.041-.069h0l.041-.069h0l.048-.069.041-.062h0l.048-.069h0l.041-.069h0l.048-.062h0l.048-.069h0l.048-.069h0l.048-.062.055-.069h0l.048-.062h0l.048-.069h0l.055-.062h0l.055-.062h0l1.03-1.23V344.479h0v-1.511l-1.711.014h0l-2.4.007-.048-.007h-.11l-.144-.007h-.007a5.892,5.892,0,0,1-3.064-1.051,4.554,4.554,0,0,1-.618-.529,9.1,9.1,0,0,1-.687-.728l-.021-.021a9.214,9.214,0,0,0-16.344,5.832v9.24Zm31.011.563v17l2.968-7.5a10.754,10.754,0,0,0,.7-4.294,9.918,9.918,0,0,0-.989-4.115l-.55-1.092Zm-.076,19.868-.007.007v.007h0l-.007.007-.007.007h0v.007h-.007v.007h0v.007h-.007l-.007.007h0v.007h-.007l-.007.007h0l-.014.021h0l-.041.034h0l.11-.124Zm-.13.138-.007.007-.007.007h-.007l-.007.007h0l-.007.007H115.5v.007H115.5l-.007.007h-.014l-.007.007h0l-.007.007h-.014l-.007.007h-.007l-.007.007h-.007l-.034.007-.007.007h-.014l.185-.082Zm-.783-3-2.961-7.5a10.88,10.88,0,0,1-.708-4.294,10.136,10.136,0,0,1,.989-4.115l.556-1.092h2.123v17Zm-22.794-31.4a5.486,5.486,0,0,1,2.933,10.573l-.041.007h0v.007a5.487,5.487,0,0,1-6.726-3.813l-.007-.041h0a5.471,5.471,0,0,1,3.84-6.733ZM87.8,343.97a6.477,6.477,0,1,1,7.378,9.439l-.041.014h-.007a6.463,6.463,0,0,1-7.935-4.493l-.014-.034v-.007h0a6.5,6.5,0,0,1,.618-4.919Zm13.383,21.771a2.867,2.867,0,0,1,3.517,1.972l.007.027h0v.014a2.864,2.864,0,0,1-1.972,3.511l-.021.007H102.7a2.867,2.867,0,0,1-1.518-5.53Zm-2.59.859a3.851,3.851,0,0,1,7.055.852l.021.048h0A3.86,3.86,0,0,1,103,372.213l-.055.014h0a3.852,3.852,0,0,1-4.356-5.627Zm-5.681-9.968a3.94,3.94,0,0,1,2.116,7.591l-.041.007h-.007l.007.007a3.95,3.95,0,0,1-4.823-2.734l-.007-.041h-.007a3.949,3.949,0,0,1,2.762-4.83Zm-3.236,1.36a4.926,4.926,0,1,1,5.613,7.179l-.021.007h-.007l-.007.007a4.93,4.93,0,0,1-6.039-3.414l-.007-.027h0l-.007-.007v-.007a4.907,4.907,0,0,1,.474-3.737Zm29.321-1.71h.914l1,1.189a6.824,6.824,0,0,1,.481,8.223l-3.9,5.922,2.164-5.468a11.85,11.85,0,0,0,.769-4.692,11.061,11.061,0,0,0-1.092-4.52l-.33-.653Zm-3.435,20.005h0Zm-.2.082-.014.007H115.3l-.007.007H104.421a20.711,20.711,0,0,1-20.665-20.665v-9.24a10.209,10.209,0,0,1,14.578-9.219,10.334,10.334,0,0,1,3.524,2.762v.007c.165.186.392.433.618.653a4.082,4.082,0,0,0,.508.433,4.773,4.773,0,0,0,1.209.618,5.083,5.083,0,0,0,1.34.261h.131l.089.007.034-.007h2.391l1.718-.007V331.852a2.954,2.954,0,0,1,.866-2.1l.007-.007h0a2.96,2.96,0,0,1,2.1-.872h4.788a2.979,2.979,0,0,1,2.968,2.975v23.756l1.037,1.23a7.8,7.8,0,0,1,.543,9.4l-6.506,9.886h-.007v.007l-.007.007h0v.014h-.007l-.323.22Zm-2.315-4.754-3.9-5.922-.117-.185h0l-.041-.062h0l-.034-.062h0l-.034-.062h0l-.1-.186h0l-.069-.124h0l-.034-.069h0l-.027-.062-.062-.124-.027-.069h0l-.028-.062h0l-.027-.062h0l-.027-.069h0l-.027-.062h0l-.028-.069h0l-.027-.062h0l-.021-.062-.027-.068h0l-.021-.062h0l-.021-.069h0l-.021-.062-.021-.069h0l-.021-.068-.021-.062-.021-.069h0l-.021-.062h0l-.014-.069-.014-.068h0l-.021-.062-.014-.069h0l-.014-.069h0l-.021-.069-.007-.062-.014-.069-.014-.069h0l-.014-.062h0l-.007-.069h0l-.014-.069-.007-.068-.007-.069-.007-.062h0l-.014-.069h0v-.068h0l-.007-.069-.007-.069-.007-.062v-.007l-.007-.062v-.069h0v-.137l-.007-.069v-.131h0v-.069l.007-.069v-.131L108,361.5l.007-.069v-.069l.007-.069.007-.062.007-.069.007-.069.007-.062h0l.014-.069.007-.069h0l.014-.069.007-.069.014-.062.014-.069.014-.062.007-.069.021-.069.014-.062.014-.069.014-.062.021-.069h0l.021-.062.014-.069.021-.062.021-.069h0l.021-.062.021-.069.021-.062h0l.021-.069.028-.062.021-.062.027-.069h0l.021-.062h0l.027-.062h0l.027-.069.027-.062h0l.027-.062h0l.027-.062.027-.062h0l.027-.062h0l.034-.062.034-.062h0l.027-.062h0l.034-.062h0l.027-.062.041-.062h0l.034-.062.027-.062h0l.041-.055h0l.034-.062h0l.034-.062h.007l.034-.055h0l.034-.062h.007l.034-.062h0l.041-.062h0l.041-.055h0l.041-.055h0l.041-.062h0l.041-.055h0l.041-.062h0l.048-.055h0l.041-.055h0l.048-.055h0l.041-.062h0l.048-.055h0l1-1.189h.914l-.33.653a10.952,10.952,0,0,0-1.092,4.52,11.85,11.85,0,0,0,.769,4.692l2.157,5.468Zm6.6-26.642v10.312h-8.752V344.973Zm-8.752-.989V331.852a1.979,1.979,0,0,1,.584-1.4v-.007a1.973,1.973,0,0,1,1.4-.577h4.788a1.982,1.982,0,0,1,1.978,1.985v12.132Z" transform="translate(-83.756 -328.877)" fill="#fff" stroke="#fff" stroke-width="0.5" fill-rule="evenodd"/>
  </g>
</svg>
